<?xml version="1.0" encoding="UTF-8" standalone="no"?>
<!DOCTYPE svg PUBLIC "-//W3C//DTD SVG 1.1//EN" "http://www.w3.org/Graphics/SVG/1.1/DTD/svg11.dtd">
<svg width="100%" height="100%" viewBox="0 0 497 398" version="1.1" xmlns="http://www.w3.org/2000/svg" xmlns:xlink="http://www.w3.org/1999/xlink" xml:space="preserve" xmlns:serif="http://www.serif.com/" style="fill-rule:evenodd;clip-rule:evenodd;stroke-linejoin:round;stroke-miterlimit:2;">
    <g transform="matrix(1,0,0,1,-8.34592,-57)">
        <g id="formation">
            <g transform="matrix(1.02812,0,0,0.980078,19.1121,-10.5176)">
                <path d="M28.332,287.593C19.258,286.515 12.207,278.435 12.207,268.627L12.207,268.259C12.207,257.717 20.353,249.171 30.403,249.171L127.325,249.171L127.325,151.334L87.989,139.83L87.989,198.948C87.989,203.86 86.129,208.571 82.818,212.045C79.507,215.518 75.016,217.469 70.334,217.469L70.331,217.469C65.649,217.469 61.158,215.518 57.847,212.045C54.536,208.571 52.676,203.86 52.676,198.948L52.676,127.336C52.676,126.812 52.785,126.306 52.985,125.847C53.307,124.681 54.184,123.739 55.341,123.401L241.269,69.021C241.867,68.846 242.5,68.846 243.098,69.021L429.025,123.401C430.497,123.831 431.515,125.238 431.515,126.841C431.515,128.444 430.497,129.85 429.025,130.281L356.535,151.483L356.535,249.171L390.252,249.171C390.54,249.171 390.82,249.208 391.087,249.279C436.513,251.528 472.597,288.552 472.597,333.688C472.597,378.825 436.513,415.848 391.087,418.098C390.82,418.168 390.54,418.206 390.252,418.206L340.295,418.206L340.295,447.253C340.295,448.531 339.644,449.712 338.588,450.349C337.532,450.986 336.232,450.983 335.179,450.34L298.149,427.753L260.937,450.344C259.884,450.984 258.585,450.985 257.531,450.347C256.477,449.709 255.828,448.53 255.828,447.253L255.828,418.206L30.403,418.206C20.353,418.206 12.207,409.66 12.207,399.117L12.207,398.75C12.207,388.692 19.621,380.451 29.029,379.715C62.398,331.783 33.674,293.917 28.332,287.593Z" style="fill:rgb(205,233,232);"/>
            </g>
            <g transform="matrix(1.02812,0,0,0.980078,-4.20387,12.2199)">
                <path d="M28.332,287.593C19.258,286.515 12.207,278.435 12.207,268.627L12.207,268.259C12.207,257.717 20.353,249.171 30.403,249.171L127.325,249.171L127.325,151.334L87.989,139.83L87.989,198.948C87.989,203.86 86.129,208.571 82.818,212.045C79.507,215.518 75.016,217.469 70.334,217.469L70.331,217.469C65.649,217.469 61.158,215.518 57.847,212.045C54.536,208.571 52.676,203.86 52.676,198.948L52.676,127.336C52.676,126.812 52.785,126.306 52.985,125.847C53.307,124.681 54.184,123.739 55.341,123.401L241.269,69.021C241.867,68.846 242.5,68.846 243.098,69.021L429.025,123.401C430.497,123.831 431.515,125.238 431.515,126.841C431.515,128.444 430.497,129.85 429.025,130.281L356.535,151.483L356.535,249.171L390.252,249.171C390.54,249.171 390.82,249.208 391.087,249.279C436.513,251.528 472.597,288.552 472.597,333.688C472.597,378.825 436.513,415.848 391.087,418.098C390.82,418.168 390.54,418.206 390.252,418.206L340.295,418.206L340.295,447.253C340.295,448.531 339.644,449.712 338.588,450.349C337.532,450.986 336.232,450.983 335.179,450.34L298.149,427.753L260.937,450.344C259.884,450.984 258.585,450.985 257.531,450.347C256.477,449.709 255.828,448.53 255.828,447.253L255.828,418.206L30.403,418.206C20.353,418.206 12.207,409.66 12.207,399.117L12.207,398.75C12.207,388.692 19.621,380.451 29.029,379.715C62.398,331.783 33.674,293.917 28.332,287.593ZM386.705,256.313L30.403,256.313C24.114,256.313 19.015,261.662 19.015,268.259L19.015,268.627C19.015,275.225 24.114,280.573 30.403,280.573L319.915,280.573C319.86,280.64 319.805,280.708 319.75,280.775L393.656,280.618C420.367,281.77 441.734,305.099 441.734,333.688C441.734,361.137 422.038,383.736 396.827,386.516C396.538,386.6 393.656,386.647 393.656,386.647L340.295,386.674L340.295,411.064L386.705,411.064C386.753,411.064 386.8,411.064 386.848,411.063C389.141,411.06 391.412,410.96 393.656,410.768C434.004,407.322 465.788,374.163 465.788,333.688C465.788,293.214 434.004,260.055 393.656,256.609C391.412,256.417 389.141,256.317 386.848,256.313C386.8,256.313 386.753,256.313 386.705,256.313ZM37.367,379.661L255.828,379.661L255.828,333.688C255.828,331.716 257.352,330.117 259.232,330.117L336.89,330.117C338.77,330.117 340.295,331.716 340.295,333.688L340.295,379.531L395.194,379.504C417.437,377.555 434.925,357.763 434.925,333.688C434.925,309.307 416.988,289.318 394.341,287.807C394.121,287.855 306.748,287.85 306.389,287.716L37.148,287.716C46.675,301.334 64.779,336.473 37.367,379.661ZM238.223,184.491C237.529,184.288 134.134,154.074 134.134,154.074L134.134,249.171L349.726,249.171L349.726,153.48L349.101,153.657L243.098,184.66C242.5,184.835 241.867,184.835 241.269,184.66L240.38,184.4L240.026,184.5C239.895,184.537 239.761,184.566 239.627,184.587C239.163,184.657 238.686,184.626 238.227,184.492L238.223,184.491ZM347.3,146.769L415.435,126.841L242.183,76.169L68.931,126.841L240.41,176.994L347.3,146.769ZM255.828,411.064L255.828,386.803L30.403,386.803C24.114,386.803 19.015,392.152 19.015,398.75L19.015,399.117C19.015,405.715 24.114,411.064 30.403,411.064L255.828,411.064ZM333.486,441.046L333.486,337.259C333.486,337.259 262.636,337.259 262.636,337.259L262.636,441.061L296.447,420.534C297.504,419.892 298.808,419.894 299.864,420.537L333.486,441.046ZM81.181,138.695L59.484,132.09L59.484,198.948C59.484,201.966 60.627,204.86 62.661,206.994C64.695,209.128 67.454,210.327 70.331,210.327L70.334,210.327C73.211,210.327 75.97,209.128 78.004,206.994C80.038,204.86 81.181,201.966 81.181,198.948L81.181,138.695Z" style="fill:rgb(17,94,91);"/>
            </g>
        </g>
    </g>
</svg>
