<?xml version="1.0" encoding="UTF-8" standalone="no"?>
<!DOCTYPE svg PUBLIC "-//W3C//DTD SVG 1.1//EN" "http://www.w3.org/Graphics/SVG/1.1/DTD/svg11.dtd">
<svg width="100%" height="100%" viewBox="0 0 353 353" version="1.1" xmlns="http://www.w3.org/2000/svg" xmlns:xlink="http://www.w3.org/1999/xlink" xml:space="preserve" xmlns:serif="http://www.serif.com/" style="fill-rule:evenodd;clip-rule:evenodd;stroke-linejoin:round;stroke-miterlimit:2;">
    <g transform="matrix(1,0,0,1,-286.959,-59.5175)">
        <g id="JS">
            <rect x="286.959" y="59.518" width="352" height="352" style="fill:rgb(255,223,0);"/>
            <g transform="matrix(0.988366,0.570633,-0.5,0.866025,147.783,-272.348)">
                <path d="M617.652,293.466C623.442,303.214 625.85,314.197 624.639,326.501C622.532,335.155 618.946,342.989 613.533,349.813C604.5,360.673 594.139,366.672 583.415,371.347C567.22,376.698 551.647,375.405 536.944,364.811L550.898,337.665C556.881,341.225 562.982,343.872 570.679,343.879C579.485,342.546 587.098,338.142 593.429,330.439C599.057,315.983 594.445,308.104 582.134,305.169L581.852,305.263C565.288,305.202 548.043,310.952 532.202,306.949C519.615,302.881 511.061,294.544 505.692,282.835L505.737,282.807C501.871,273.961 500.244,265.053 501.38,256.068C509.571,222.378 542.883,201.852 571.44,221.341L559.522,248.097C552.069,243.849 544.733,242.597 537.597,246.567C529.528,251.783 528.881,259.058 531.097,267.127L531.041,267.165C532.529,270.456 534.521,272.752 537.174,273.741C548.663,278.024 557.658,274.016 568.227,273.143C575.917,272.507 582.079,272.24 588.831,272.746C600.461,273.981 610.361,280.148 617.77,293.427L617.652,293.466Z"/>
            </g>
            <path d="M478.624,338.788C478.074,348.27 475.705,357.424 471.583,364.622C451.597,392.2 397.817,391.6 379.481,353.959L406.695,337.429C409.01,343.39 412.724,348.341 418.16,352.048C435.758,358.951 442.848,351.089 445.749,338.184L445.749,221.169L478.671,221.169L478.671,338.788L478.624,338.788Z"/>
        </g>
    </g>
</svg>
