<?xml version="1.0" encoding="UTF-8" standalone="no"?>
<!DOCTYPE svg PUBLIC "-//W3C//DTD SVG 1.1//EN" "http://www.w3.org/Graphics/SVG/1.1/DTD/svg11.dtd">
<svg width="100%" height="100%" viewBox="0 0 447 324" version="1.1" xmlns="http://www.w3.org/2000/svg" xmlns:xlink="http://www.w3.org/1999/xlink" xml:space="preserve" xmlns:serif="http://www.serif.com/" style="fill-rule:evenodd;clip-rule:evenodd;stroke-linejoin:round;stroke-miterlimit:2;">
    <g transform="matrix(1,0,0,1,-27.7959,-14.4977)">
        <g id="loisirs">
            <g id="ballon" transform="matrix(0.910276,0,0,0.910276,12.3735,42.7913)">
                <g transform="matrix(0.951593,0,0,0.951593,10.1454,26.6719)">
                    <circle cx="252.68" cy="220.543" r="92.669" style="fill:rgb(205,233,232);"/>
                </g>
                <g transform="matrix(0.951593,0,0,0.951593,-4.68719,6.17369)">
                    <path d="M156.333,220.51C156.343,192.727 168.137,167.677 186.985,150.092C187.026,150.053 187.068,150.014 187.11,149.976C204.312,133.982 227.362,124.196 252.68,124.196C305.845,124.196 349.009,167.35 349.027,220.51C349.027,220.521 349.027,220.532 349.027,220.543C349.027,273.718 305.856,316.89 252.68,316.89C226.808,316.89 203.304,306.67 185.988,290.05C185.95,290.014 185.912,289.978 185.875,289.942C167.668,272.41 156.333,247.79 156.333,220.543C156.333,220.532 156.333,220.521 156.333,220.51ZM189.557,157.839C174.385,173.113 164.71,193.854 163.766,216.832L215.787,216.832C215.125,186.6 196.357,164.774 189.557,157.839ZM249.002,131.627C228.413,132.466 209.617,140.314 194.94,152.847C202.594,160.75 222.468,184.343 223.142,216.832L249.002,216.832L249.002,131.627ZM341.595,216.832C340.641,193.625 330.782,172.699 315.348,157.384C308.971,163.774 289.345,185.904 288.668,216.832L341.595,216.832ZM309.924,152.427C295.321,140.139 276.717,132.456 256.358,131.627L256.358,216.832L281.314,216.832C282,183.745 302.598,159.886 309.924,152.427ZM256.358,309.459C277.317,308.605 296.417,300.488 311.206,287.56C291.267,265.145 283.182,244.063 281.595,225.518C281.557,225.073 281.523,224.63 281.492,224.188L256.358,224.188L256.358,309.459ZM316.544,282.492C331.304,267.279 340.684,246.816 341.598,224.188L288.868,224.188C288.885,224.422 288.904,224.656 288.924,224.891C290.401,242.141 298.067,261.658 316.544,282.492ZM193.646,287.112C208.505,300.3 227.803,308.595 249.002,309.459L249.002,224.188L222.963,224.188C222.932,224.63 222.898,225.073 222.86,225.518C221.283,243.94 213.296,264.864 193.646,287.112ZM163.763,224.188C164.667,246.574 173.856,266.841 188.345,282.002C206.508,261.352 214.066,242.006 215.531,224.891C215.551,224.656 215.57,224.422 215.588,224.188L163.763,224.188Z" style="fill:rgb(17,94,91);"/>
                </g>
            </g>
            <g id="théâtre" transform="matrix(0.890987,0,0,0.890987,55.3222,0.261421)">
                <g id="masque" transform="matrix(0.895862,-0.240045,0.240045,0.895862,18.0165,250.625)">
                    <g transform="matrix(1.07955,2.14787e-17,-2.14787e-17,-0.904158,-33.7951,219.341)">
                        <path d="M410.397,41.753C455.15,69.626 480.383,128.234 486.588,201.756C435.336,184.38 384.509,183.119 334.206,201.756C332.945,138.575 359.27,80.592 410.397,41.753Z" style="fill:rgb(205,233,232);"/>
                    </g>
                    <g transform="matrix(1.07955,2.14787e-17,-2.14787e-17,-0.904158,-39.2528,208.232)">
                        <path d="M408.657,38.487C356.473,78.129 329.678,137.361 330.964,201.848C330.989,203.061 331.488,204.191 332.314,204.899C333.139,205.608 334.196,205.812 335.166,205.453C384.86,187.042 435.072,188.314 485.703,205.479C486.736,205.83 487.847,205.546 488.67,204.723C489.494,203.9 489.922,202.643 489.814,201.368C483.486,126.382 457.541,66.749 411.897,38.32C410.869,37.681 409.634,37.744 408.657,38.487ZM410.552,46.236C452.239,73.226 476.071,127.989 482.846,196.506C433.953,180.841 385.445,179.805 337.406,196.562C337.652,137.331 362.887,83.201 410.552,46.236Z" style="fill:rgb(17,94,91);"/>
                    </g>
                    <path d="M351.208,69.513C349.917,68.076 350.036,65.862 351.472,64.571C352.909,63.279 355.124,63.398 356.415,64.835C362.01,71.062 367.289,74.66 372.539,74.776C377.614,74.888 382.322,71.585 387.026,65.116C388.162,63.553 390.352,63.207 391.915,64.343C393.477,65.479 393.823,67.67 392.687,69.232C386.241,78.099 379.34,81.928 372.384,81.774C365.603,81.624 358.436,77.557 351.208,69.513Z" style="fill:rgb(17,94,91);"/>
                    <g transform="matrix(1,0,0,1,62.6037,0)">
                        <path d="M351.208,69.513C349.917,68.076 350.036,65.862 351.472,64.571C352.909,63.279 355.124,63.398 356.415,64.835C362.01,71.062 367.289,74.66 372.539,74.776C377.614,74.888 382.322,71.585 387.026,65.116C388.162,63.553 390.352,63.207 391.915,64.343C393.477,65.479 393.823,67.67 392.687,69.232C386.241,78.099 379.34,81.928 372.384,81.774C365.603,81.624 358.436,77.557 351.208,69.513Z" style="fill:rgb(17,94,91);"/>
                    </g>
                    <g transform="matrix(-1.28401,0,0,1,882.724,52.7344)">
                        <path d="M355.597,64.529C354.46,63.264 352.737,63.422 351.752,64.882C350.767,66.341 350.889,68.554 352.026,69.819C359.016,77.598 365.856,81.63 372.415,81.775C379.114,81.923 385.64,78.102 391.849,69.562C392.876,68.15 392.816,65.934 391.717,64.616C390.617,63.297 388.891,63.374 387.864,64.786C382.924,71.58 377.839,74.893 372.508,74.776C367.037,74.655 361.429,71.019 355.597,64.529Z" style="fill:rgb(17,94,91);"/>
                    </g>
                </g>
                <g id="masque2" transform="matrix(0.845851,0.142296,-0.142296,0.845851,26.6215,-30.6661)">
                    <g transform="matrix(1.07955,2.14787e-17,-2.14787e-17,-0.904158,-32.6253,221.057)">
                        <path d="M410.397,41.753C455.15,69.626 480.383,128.234 486.588,201.756C435.336,184.38 384.509,183.119 334.206,201.756C332.945,138.575 359.27,80.592 410.397,41.753Z" style="fill:rgb(205,233,232);"/>
                    </g>
                    <g transform="matrix(1.07955,2.14787e-17,-2.14787e-17,-0.904158,-39.2528,208.232)">
                        <path d="M408.657,38.487C356.473,78.129 329.678,137.361 330.964,201.848C330.989,203.061 331.488,204.191 332.314,204.899C333.139,205.608 334.196,205.812 335.166,205.453C384.86,187.042 435.072,188.314 485.703,205.479C486.736,205.83 487.847,205.546 488.67,204.723C489.494,203.9 489.922,202.643 489.814,201.368C483.486,126.382 457.541,66.749 411.897,38.32C410.869,37.681 409.634,37.744 408.657,38.487ZM410.552,46.236C452.239,73.226 476.071,127.989 482.846,196.506C433.953,180.841 385.445,179.805 337.406,196.562C337.652,137.331 362.887,83.201 410.552,46.236Z" style="fill:rgb(17,94,91);"/>
                    </g>
                    <path d="M351.208,69.513C349.917,68.076 350.036,65.862 351.472,64.571C352.909,63.279 355.124,63.398 356.415,64.835C362.01,71.062 367.289,74.66 372.539,74.776C377.614,74.888 382.322,71.585 387.026,65.116C388.162,63.553 390.352,63.207 391.915,64.343C393.477,65.479 393.823,67.67 392.687,69.232C386.241,78.099 379.34,81.928 372.384,81.774C365.603,81.624 358.436,77.557 351.208,69.513Z" style="fill:rgb(17,94,91);"/>
                    <g transform="matrix(1,0,0,1,62.6037,0)">
                        <path d="M351.208,69.513C349.917,68.076 350.036,65.862 351.472,64.571C352.909,63.279 355.124,63.398 356.415,64.835C362.01,71.062 367.289,74.66 372.539,74.776C377.614,74.888 382.322,71.585 387.026,65.116C388.162,63.553 390.352,63.207 391.915,64.343C393.477,65.479 393.823,67.67 392.687,69.232C386.241,78.099 379.34,81.928 372.384,81.774C365.603,81.624 358.436,77.557 351.208,69.513Z" style="fill:rgb(17,94,91);"/>
                    </g>
                    <g transform="matrix(1.28401,0,0,-1,-73.673,192.751)">
                        <path d="M355.597,64.529C354.46,63.264 352.737,63.422 351.752,64.882C350.767,66.341 350.889,68.554 352.026,69.819C359.016,77.598 365.856,81.63 372.415,81.775C379.114,81.923 385.64,78.102 391.849,69.562C392.876,68.15 392.816,65.934 391.717,64.616C390.617,63.297 388.891,63.374 387.864,64.786C382.924,71.58 377.839,74.893 372.508,74.776C367.037,74.655 361.429,71.019 355.597,64.529Z" style="fill:rgb(17,94,91);"/>
                    </g>
                </g>
            </g>
            <g id="musique" transform="matrix(1,0,0,1,-4.8262,-13.3736)">
                <g transform="matrix(1,0,0,1,34.8083,0.126764)">
                    <g transform="matrix(0.918376,-0.395708,0.31146,0.72285,9.85139,-20.5184)">
                        <path d="M-3.029,256.818C-5.351,262.802 -14.891,274.53 -28.127,273.255C-39.858,272.612 -49.03,261.711 -48.595,248.928C-48.161,236.145 -38.284,226.289 -26.552,226.932C-16.794,227.468 -8.807,235.1 -6.647,245.009L25.334,150.712C26.098,148.458 114.882,148.6 117.776,150.046L83.016,252.542C80.905,258.878 71.568,270.452 57.989,268.768C46.258,268.125 37.087,257.224 37.521,244.441C37.956,231.658 47.833,221.802 59.564,222.446C69.322,222.981 77.309,230.613 79.47,240.523L98.429,184.619L21.177,185.442L-3.029,256.818Z" style="fill:rgb(205,233,232);"/>
                    </g>
                    <g transform="matrix(0.918376,-0.395708,0.31146,0.72285,5.33914,-33.7612)">
                        <path d="M-3.471,257.773C-6.452,269.692 -16.482,278.345 -28.278,277.698C-42.076,276.941 -52.603,263.771 -52.092,248.736C-51.581,233.701 -40.199,221.733 -26.401,222.49C-16.559,223.03 -8.381,229.886 -4.686,239.23L25.334,150.712C25.351,150.66 25.37,150.608 25.389,150.557L25.527,150.142C26.075,148.496 27.344,147.427 28.751,147.427L113.154,147.427C114.347,147.427 115.457,148.198 116.101,149.474C116.738,150.738 116.831,152.325 116.348,153.693C116.316,154.153 116.227,154.615 116.075,155.063L83.016,252.542C82.905,252.869 82.766,253.17 82.606,253.444C79.575,265.281 69.582,273.855 57.838,273.211C44.041,272.454 33.513,259.284 34.024,244.249C34.535,229.214 45.917,217.246 59.715,218.003C69.557,218.543 77.735,225.399 81.43,234.743L96.915,189.082L19.664,189.905L-3.029,256.818C-3.147,257.166 -3.296,257.486 -3.471,257.773ZM-26.703,231.375C-36.37,230.845 -44.74,238.586 -45.098,249.12C-45.456,259.653 -37.643,268.282 -27.976,268.813C-18.309,269.343 -9.939,261.602 -9.581,251.068C-9.223,240.534 -17.037,231.905 -26.703,231.375ZM107.693,156.32L31.071,156.32L22.865,180.977L99.067,180.166L107.693,156.32ZM59.413,226.888C49.746,226.358 41.376,234.099 41.018,244.633C40.66,255.166 48.474,263.796 58.14,264.326C67.807,264.856 76.177,257.115 76.535,246.581C76.893,236.048 69.08,227.419 59.413,226.888Z" style="fill:rgb(17,94,91);"/>
                    </g>
                </g>
                <g transform="matrix(1,0,0,1,-18.885,28.3278)">
                    <g transform="matrix(0.889955,-0.476156,0.471755,0.88173,-112.468,66.89)">
                        <path d="M96.388,275.316C92.57,282.131 84.238,287.007 74.365,287.007C60.778,287.007 50.108,277.772 50.108,266.955C50.108,256.137 60.778,246.902 74.365,246.902C84.718,246.902 93.378,252.264 96.914,259.603L125.995,204.741C126.396,203.8 127.199,203.044 128.251,202.749C129.151,202.496 130.067,202.625 130.829,203.041C131.777,203.553 132.393,204.446 132.592,205.433L138.316,226.175C139.896,231.901 139.068,238.031 136.029,243.122L128.454,255.808C127.466,257.462 125.333,257.996 123.694,256.999C122.054,256.002 121.526,253.849 122.514,252.194L130.089,239.508C132.143,236.067 132.703,231.924 131.635,228.053L128.166,215.484L96.726,274.795C96.627,274.982 96.514,275.155 96.388,275.316Z" style="fill:rgb(205,233,232);"/>
                    </g>
                    <path d="M98.6,256.619C98.417,264.447 93.302,272.714 84.516,277.415C72.424,283.884 58.572,280.822 53.468,271.284C48.365,261.746 53.505,248.523 65.596,242.053C74.81,237.124 85.046,237.728 91.655,242.515L91.655,180.294C91.568,179.274 91.926,178.225 92.723,177.463C93.404,176.812 94.281,176.49 95.155,176.494C96.239,176.494 97.21,176.988 97.852,177.763L112.731,193.327C116.838,197.623 118.994,203.422 118.69,209.358L117.934,224.151C117.835,226.08 116.189,227.566 114.259,227.467C112.33,227.369 110.844,225.722 110.943,223.793L111.7,209C111.905,204.988 110.448,201.068 107.671,198.164L98.655,188.733L98.655,256C98.655,256.211 98.636,256.418 98.6,256.619ZM91.655,255.561C91.547,254.153 91.163,252.778 90.472,251.486C86.954,244.91 77.235,243.765 68.899,248.225C60.562,252.685 56.122,261.406 59.64,267.982C63.159,274.558 72.877,275.703 81.214,271.243C87.561,267.846 91.65,261.98 91.686,256.471C91.665,256.317 91.655,256.16 91.655,256L91.655,255.561Z" style="fill:rgb(17,94,91);"/>
                </g>
            </g>
        </g>
    </g>
</svg>
