<?xml version="1.0" encoding="UTF-8" standalone="no"?>
<!DOCTYPE svg PUBLIC "-//W3C//DTD SVG 1.1//EN" "http://www.w3.org/Graphics/SVG/1.1/DTD/svg11.dtd">
<svg width="100%" height="100%" viewBox="0 0 868 313" version="1.1" xmlns="http://www.w3.org/2000/svg" xmlns:xlink="http://www.w3.org/1999/xlink" xml:space="preserve" xmlns:serif="http://www.serif.com/" style="fill-rule:evenodd;clip-rule:evenodd;stroke-linejoin:round;stroke-miterlimit:2;">
    <g transform="matrix(1,0,0,1,-16.2407,-68.7528)">
        <g transform="matrix(2.96792,0,0,2.96792,-856.961,-167.727)">
            <path d="M507.861,89.723L507.861,168.302L478.93,184.97L450,168.302L450,134.967L478.93,118.299L490.124,124.748L490.124,79.679L507.861,89.723ZM480.16,140.154L470.197,145.894L470.197,157.375L480.16,163.115L490.124,157.375L490.124,145.894L480.16,140.154Z"/>
            <g transform="matrix(1.03713,0,0,1.03493,124.28,-13.4612)">
                <path d="M417.79,126.606L445.685,142.711L445.685,154.651L428.194,163.84L428.194,154.416L418.334,148.431L408.917,154.431L408.917,165.065L435.947,180.543L417.79,191.026L389.895,174.921L389.895,142.711L417.79,126.606Z"/>
            </g>
            <g transform="matrix(1.03713,0,0,1.03493,-110.159,-12.7294)">
                <path d="M417.79,126.606L445.685,142.711L445.685,184.399L426.714,174.057L426.67,152.979L417.919,147.86L408.489,152.948L408.339,174.129L389.895,183.931L389.895,142.711L417.79,126.606Z"/>
            </g>
            <g transform="matrix(1.03713,0,0,1.03493,-31.7097,-12.7294)">
                <path d="M417.79,126.606L445.685,142.711L445.685,174.921L417.79,191.026L389.895,174.921L389.895,142.711L417.79,126.606Z" style="fill:rgb(128,189,2);"/>
            </g>
            <g transform="matrix(0.210274,0,0,0.209828,469.732,118.31)">
                <path d="M417.79,126.606L445.685,142.711L445.685,174.921L417.79,191.026L389.895,174.921L389.895,142.711L417.79,126.606Z" style="fill:rgb(128,189,2);"/>
            </g>
        </g>
    </g>
</svg>
