<?xml version="1.0" encoding="UTF-8" standalone="no"?>
<!DOCTYPE svg PUBLIC "-//W3C//DTD SVG 1.1//EN" "http://www.w3.org/Graphics/SVG/1.1/DTD/svg11.dtd">
<svg width="100%" height="100%" viewBox="0 0 476 467" version="1.1" xmlns="http://www.w3.org/2000/svg" xmlns:xlink="http://www.w3.org/1999/xlink" xml:space="preserve" xmlns:serif="http://www.serif.com/" style="fill-rule:evenodd;clip-rule:evenodd;stroke-linejoin:round;stroke-miterlimit:2;">
    <g transform="matrix(1,0,0,1,-18.1584,-22.7906)">
        <g id="professionnel">
            <g transform="matrix(0.942389,0,0,0.946633,29.5557,10.2279)">
                <path d="M19.331,390.989L19.331,152.267C19.331,132.325 35.57,116.158 55.603,116.158L160.457,116.158L160.457,73.113C160.457,65.836 163.36,58.858 168.529,53.713C173.697,48.568 180.707,45.677 188.016,45.677L324.177,45.677C331.486,45.677 338.496,48.568 343.665,53.713C348.833,58.858 351.737,65.836 351.737,73.113L351.737,116.158L456.397,116.158C476.43,116.158 492.669,132.325 492.669,152.267L492.669,390.989C492.669,410.931 476.43,427.098 456.397,427.098L443.994,427.098C448.887,434.295 451.745,442.976 451.745,452.321L451.745,505.984L360.852,505.984L360.852,452.321C360.852,442.976 363.71,434.295 368.603,427.098L55.603,427.098C35.57,427.098 19.331,410.931 19.331,390.989Z" style="fill:rgb(205,233,232);"/>
            </g>
            <g transform="matrix(0.942389,0,0,0.946633,3.44122,-16.9487)">
                <path d="M15.617,154.922C15.617,154.895 15.617,154.868 15.617,154.841L15.617,152.267C15.617,130.283 33.519,112.461 55.603,112.461L156.743,112.461L156.743,73.113C156.743,64.856 160.037,56.937 165.902,51.098C171.767,45.26 179.722,41.98 188.016,41.98L324.177,41.98C332.471,41.98 340.426,45.26 346.291,51.098C352.156,56.937 355.451,64.856 355.451,73.113L355.451,112.461L456.397,112.461C478.481,112.461 496.383,130.283 496.383,152.267L496.383,154.841C496.383,154.868 496.383,154.894 496.383,154.921L496.383,390.989C496.383,412.973 478.481,430.795 456.397,430.795L450.439,430.795C453.654,437.287 455.459,444.594 455.459,452.321L455.459,505.984C455.459,508.026 453.796,509.681 451.745,509.681L360.852,509.681C358.801,509.681 357.138,508.026 357.138,505.984L357.138,452.321C357.138,444.594 358.944,437.287 362.158,430.795L55.603,430.795C33.519,430.795 15.617,412.973 15.617,390.989L15.617,154.922ZM463.887,165.931L488.955,152.664L488.955,152.267C488.955,134.367 474.378,119.855 456.397,119.855L55.603,119.855C37.622,119.855 23.045,134.367 23.045,152.267L23.045,152.659L44.451,163.939C44.84,163.998 45.222,164.12 45.583,164.304L216.207,251.37L216.207,227.483C216.207,225.441 217.869,223.785 219.921,223.785L292.951,223.785C295.002,223.785 296.665,225.441 296.665,227.483L296.665,250.993L463.887,165.931ZM40.175,170.052L23.045,161.026L23.045,390.989C23.045,408.889 37.622,423.4 55.603,423.4L366.681,423.4C371.614,416.746 378.206,411.385 385.849,407.922L74.242,407.922C65.207,407.922 56.541,404.349 50.153,397.989C43.764,391.629 40.175,383.003 40.175,374.008L40.175,170.052ZM426.748,407.922C434.391,411.385 440.983,416.746 445.916,423.4L456.397,423.4C474.378,423.4 488.955,408.889 488.955,390.989L488.955,161.038L471.825,170.104L471.825,374.008C471.825,392.738 456.573,407.922 437.758,407.922L426.748,407.922ZM464.398,174.035L296.665,262.807L296.665,280.945C296.665,303.018 278.691,320.911 256.519,320.911L256.353,320.911C234.181,320.911 216.207,303.018 216.207,280.945L216.207,262.811L47.602,173.966L47.602,374.008C47.602,381.041 50.409,387.787 55.405,392.76C60.401,397.734 67.177,400.528 74.242,400.528L380.059,400.528C372.426,393.439 367.65,383.339 367.65,372.138C367.65,350.711 385.125,333.314 406.649,333.314C428.172,333.314 445.647,350.711 445.647,372.138C445.647,383.339 440.872,393.439 433.239,400.528L437.758,400.528C452.471,400.528 464.398,388.654 464.398,374.008L464.398,174.035ZM420.201,400.528C430.851,395.475 438.219,384.657 438.219,372.138C438.219,354.792 424.073,340.709 406.649,340.709C389.224,340.709 375.078,354.792 375.078,372.138C375.078,384.656 382.446,395.475 393.097,400.528L420.201,400.528ZM223.635,260.549C223.635,260.576 223.635,260.603 223.635,260.63L223.635,280.945C223.635,298.934 238.283,313.517 256.353,313.517L256.519,313.517C274.588,313.517 289.237,298.934 289.237,280.945L289.237,260.629C289.237,260.603 289.237,260.576 289.237,260.55L289.237,231.18L223.635,231.18L223.635,260.549ZM334.857,112.461L348.023,112.461L348.023,73.113C348.023,66.817 345.51,60.779 341.039,56.327C336.567,51.875 330.501,49.374 324.177,49.374L188.016,49.374C181.692,49.374 175.627,51.875 171.155,56.327C166.683,60.779 164.171,66.817 164.171,73.113C164.171,73.113 164.171,112.461 164.171,112.461L177.143,112.461L177.143,78.945C177.143,68.155 185.931,59.407 196.77,59.407L315.23,59.407C326.069,59.407 334.857,68.155 334.857,78.945L334.857,112.461ZM315.23,66.801L196.77,66.801C190.033,66.801 184.571,72.238 184.571,78.945L184.571,111.277C184.571,111.277 327.429,111.277 327.429,111.277L327.429,78.945C327.429,72.238 321.967,66.801 315.23,66.801ZM370.629,430.795C366.782,437.066 364.566,444.436 364.566,452.321L364.566,502.287L448.031,502.287L448.031,452.321C448.031,444.436 445.815,437.066 441.968,430.795C440.323,428.114 438.381,425.634 436.186,423.4C428.679,415.761 418.222,411.006 406.649,410.962L406.485,410.961L406.112,410.962C394.474,410.962 383.954,415.725 376.411,423.4C374.217,425.634 372.274,428.114 370.629,430.795Z" style="fill:rgb(17,94,91);"/>
            </g>
        </g>
    </g>
</svg>
