<?xml version="1.0" encoding="UTF-8" standalone="no"?>
<!DOCTYPE svg PUBLIC "-//W3C//DTD SVG 1.1//EN" "http://www.w3.org/Graphics/SVG/1.1/DTD/svg11.dtd">
<svg width="100%" height="100%" viewBox="0 0 392 349" version="1.1" xmlns="http://www.w3.org/2000/svg" xmlns:xlink="http://www.w3.org/1999/xlink" xml:space="preserve" xmlns:serif="http://www.serif.com/" style="fill-rule:evenodd;clip-rule:evenodd;stroke-linejoin:round;stroke-miterlimit:2;">
    <g transform="matrix(1,0,0,1,-253.618,-42.644)">
        <g transform="matrix(1.1222,0,0,1.1222,-53.1666,-24.1486)">
            <circle cx="447.713" cy="214.995" r="31.133" style="fill:rgb(97,218,252);"/>
        </g>
        <g transform="matrix(0.834113,-0.478405,0.585104,1.02015,-18.625,198.564)">
            <path d="M277.609,212.536C264.998,202.14 254.669,191.858 247.025,182.109C230.586,161.147 226.664,142.162 235.995,128.86C245.327,115.557 267.348,108.739 297.779,109.756C311.731,110.222 327.55,112.268 344.614,115.825C349.329,101.953 355.029,89.715 361.477,79.587C375.538,57.498 393.727,45.271 412.483,45.271C431.239,45.271 449.427,57.498 463.489,79.587C469.903,89.663 475.578,101.828 480.279,115.612C497.205,111.97 512.912,109.833 526.788,109.272C557.206,108.042 579.298,114.705 588.769,127.942C598.24,141.179 594.516,160.19 578.297,181.267C570.832,190.969 560.741,201.214 548.412,211.588C560.544,221.686 570.511,231.665 577.94,241.14C594.379,262.103 598.302,281.087 588.97,294.39C579.639,307.693 557.617,314.51 527.187,313.494C513.234,313.027 497.415,310.981 480.352,307.424C475.636,321.297 469.936,333.535 463.489,343.662C449.427,365.751 431.239,377.978 412.483,377.978C393.727,377.978 375.538,365.751 361.477,343.662C355.195,333.795 349.623,321.925 344.98,308.492C328.455,311.998 313.11,314.059 299.522,314.608C269.104,315.838 247.012,309.175 237.541,295.938C228.071,282.701 231.794,263.69 248.013,242.613C255.42,232.987 265.411,222.827 277.609,212.536ZM340.805,128.153C324.921,124.847 310.184,122.936 297.142,122.5C284.889,122.091 274.228,122.983 265.701,125.389C258.383,127.454 252.752,130.608 249.527,135.205C246.302,139.802 245.816,145.37 247.331,151.577C249.097,158.81 253.538,166.784 260.157,175.225C267.308,184.345 276.947,193.93 288.693,203.618C301.367,193.871 315.907,184.112 331.996,174.677C333.81,158.059 336.817,142.408 340.805,128.153ZM465.338,119.139C460.95,106.277 455.66,94.914 449.651,85.476C443.99,76.582 437.739,69.465 430.944,64.614C425.112,60.451 418.964,58.026 412.483,58.026C406.001,58.026 399.853,60.451 394.021,64.614C387.226,69.465 380.976,76.582 375.314,85.476C369.287,94.943 363.983,106.347 359.587,119.257C376.545,123.484 394.478,129.076 412.841,135.973C430.932,129.058 448.607,123.427 465.338,119.139ZM537.253,202.733C548.717,193.077 558.118,183.54 565.094,174.475C571.624,165.988 575.982,157.983 577.671,150.738C579.121,144.52 578.577,138.957 575.304,134.382C572.031,129.808 566.367,126.694 559.027,124.68C550.476,122.333 539.806,121.516 527.558,122.011C514.561,122.536 499.894,124.54 484.1,127.938C488.028,141.932 491.011,157.276 492.846,173.563C509.362,183.054 524.277,192.895 537.253,202.733ZM484.16,295.097C500.044,298.402 514.782,300.314 527.824,300.749C540.076,301.159 550.737,300.267 559.264,297.86C566.582,295.795 572.214,292.641 575.438,288.044C578.663,283.447 579.149,277.88 577.634,271.672C575.869,264.439 571.427,256.465 564.808,248.025C557.869,239.176 548.589,229.889 537.314,220.495C524.314,230.469 509.363,240.454 492.801,250.087C490.971,266.142 488.027,281.275 484.16,295.097ZM359.935,305.005C364.262,317.5 369.445,328.555 375.314,337.773C380.976,346.667 387.226,353.785 394.021,358.636C399.853,362.799 406.001,365.224 412.483,365.224C418.964,365.224 425.112,362.799 430.944,358.636C437.739,353.785 443.99,346.667 449.651,337.773C455.678,328.307 460.982,316.903 465.378,303.993C448.887,299.882 431.473,294.48 413.638,287.843C395.114,294.93 377.024,300.673 359.935,305.005ZM288.817,221.35C277.462,230.937 268.143,240.404 261.216,249.405C254.686,257.892 250.328,265.897 248.639,273.142C247.189,279.36 247.733,284.924 251.006,289.498C254.279,294.072 259.943,297.187 267.283,299.2C275.834,301.547 286.504,302.364 298.752,301.869C311.447,301.356 325.735,299.432 341.11,296.177C337.061,281.951 333.992,266.31 332.119,249.687C316.07,240.464 301.532,230.91 288.817,221.35ZM394.643,143.307C381.293,138.649 368.264,134.736 355.79,131.601C352.89,142.079 350.547,153.35 348.844,165.225C356.146,161.307 363.71,157.469 371.513,153.737C379.239,150.041 386.962,146.563 394.643,143.307ZM330.602,191.346C319.433,198.29 309.16,205.364 299.925,212.432C309.205,219.375 319.501,226.314 330.675,233.118C330.238,226.084 330.013,218.91 330.013,211.625C330.013,204.758 330.213,197.99 330.602,191.346ZM475.986,164.295C474.289,152.719 471.982,141.724 469.144,131.487C456.918,134.649 444.162,138.567 431.1,143.208C438.543,146.311 446.026,149.62 453.514,153.132C461.243,156.756 468.742,160.486 475.986,164.295ZM494.271,233.424C505.896,226.258 516.569,218.946 526.134,211.64C516.572,204.423 505.906,197.204 494.29,190.132C494.727,197.165 494.953,204.34 494.953,211.625C494.953,219.016 494.72,226.293 494.271,233.424ZM431.88,280.483C444.686,284.904 457.187,288.636 469.175,291.649C471.956,281.602 474.224,270.826 475.908,259.488C469.089,263.117 462.046,266.676 454.797,270.144C447.142,273.805 439.491,277.253 431.88,280.483ZM348.979,258.954C350.727,270.875 353.121,282.179 356.076,292.674C368.662,289.457 381.82,285.432 395.304,280.639C387.387,277.364 379.422,273.856 371.452,270.118C363.723,266.493 356.224,262.764 348.979,258.954ZM412.898,150.067C401.826,154.478 390.614,159.377 379.39,164.746C368.024,170.182 357.177,175.846 346.936,181.651C346.067,191.354 345.612,201.375 345.612,211.625C345.612,222.236 346.099,232.603 347.03,242.625C357.199,248.271 367.955,253.774 379.213,259.054C390.721,264.45 402.212,269.359 413.547,273.759C424.575,269.363 435.742,264.481 446.92,259.134C457.741,253.959 468.09,248.578 477.894,243.065C478.852,232.906 479.353,222.391 479.353,211.625C479.353,201.014 478.866,190.647 477.935,180.625C467.766,174.979 457.01,169.475 445.752,164.196C434.745,159.034 423.753,154.318 412.898,150.067Z" style="fill:rgb(97,218,252);"/>
        </g>
    </g>
</svg>
