<?xml version="1.0" encoding="UTF-8" standalone="no"?>
<!DOCTYPE svg PUBLIC "-//W3C//DTD SVG 1.1//EN" "http://www.w3.org/Graphics/SVG/1.1/DTD/svg11.dtd">
<svg width="100%" height="100%" viewBox="0 0 353 353" version="1.1" xmlns="http://www.w3.org/2000/svg" xmlns:xlink="http://www.w3.org/1999/xlink" xml:space="preserve" xmlns:serif="http://www.serif.com/" style="fill-rule:evenodd;clip-rule:evenodd;stroke-linejoin:round;stroke-miterlimit:2;">
    <g transform="matrix(1,0,0,1,-286.959,-59.5175)">
        <g id="sass">
            <g transform="matrix(1.16878,0,0,1.16878,-107.843,-38.778)">
                <circle cx="488.375" cy="234.686" r="150.585" style="fill:rgb(204,102,153);"/>
            </g>
            <g transform="matrix(1,0,0,1,0.172549,-0.0386092)">
                <path d="M419.912,284.38C419.939,284.409 410.459,276.382 403.733,272.307C400.319,269.898 373.613,253.754 359.533,233.163C351.414,221.167 349.83,205.906 355.312,192.498C363.523,172.649 383.159,153.969 410.988,136.054C430.857,124.267 483.83,94.3 533.268,103.898C547.618,107.243 584.84,117.527 571.817,163.424C564.235,183.755 541.028,216.796 492.041,223.309C485.214,224.775 438.686,231.366 433.189,200.041C433.189,200.041 458.364,229.649 515.676,199.444C517.554,198.748 561.929,173.434 554.443,142.989C553.33,138.397 550.519,134.396 546.575,131.793C536.059,124.833 511.482,117.064 462.959,135.132C453.038,138.108 400.385,163.636 385.101,192.033C384.652,193.04 365.419,217.946 390.858,240.737C416.297,263.527 432.707,276.532 434.346,278.171C439.764,276.502 459.589,272.135 481.864,277C497.196,281.851 520.169,303.2 508.614,324.942C506.176,329.528 501.089,334.753 491.429,335.127C488.178,335.084 512.99,320.273 499.308,302.775C481.711,279.156 441.353,288.648 441.353,288.648C446.074,300.035 448.873,319.949 433.286,345.128C424.753,358.913 400.714,372.576 382.022,368.918C374.848,367.522 368.71,362.917 365.364,356.42C361.022,348.122 359.2,334.745 372.913,317.869C386.384,301.29 419.911,284.381 419.912,284.38ZM428.332,294.08C428.34,294.096 386.096,313.041 383.685,343.091C383.113,350.219 398.838,359.949 422.122,331.4C433.23,316.454 428.332,294.08 428.332,294.08Z" style="fill:white;"/>
            </g>
        </g>
    </g>
</svg>
