<?xml version="1.0" encoding="utf-8"?>
<!-- Generator: Adobe Illustrator 24.3.0, SVG Export Plug-In . SVG Version: 6.00 Build 0)  -->
<svg version="1.1" id="Calque_1" xmlns="http://www.w3.org/2000/svg" xmlns:xlink="http://www.w3.org/1999/xlink" x="0px" y="0px"
	 width="142.9px" height="85px" viewBox="0 0 142.9 85" style="enable-background:new 0 0 142.9 85;" xml:space="preserve">
<style type="text/css">
	.st0{fill:#808080;}
	.st1{fill:url(#SVGID_1_);}
	.st2{fill:url(#SVGID_2_);}
	.st3{fill:url(#SVGID_3_);}
</style>
<path class="st0" d="M1.1,9.6c0-4.6,3-8.3,7.9-8.3c3.1,0,5.3,1.6,6.4,3.7L14,5.9c-0.9-1.5-2.4-3-5-3c-3.7,0-6.1,2.8-6.1,6.7
	s2.5,6.7,6.2,6.7c3,0,5.1-2.1,5.1-5.4h-5V9.3h6.7v8.3h-1.2l-0.3-2.3c-1.4,1.8-3.3,2.6-5.3,2.6C4,17.9,1.1,14.1,1.1,9.6z"/>
<path class="st0" d="M28.4,1.5h6.7c2.9,0,5.1,2.2,5.1,5c0,3.7-3.6,4.9-3.6,4.9l4.4,6.1h-1.9l-4.3-6h-4.9v6h-1.5V1.5L28.4,1.5z
	 M35.1,10.1c1.6,0,3.5-1.3,3.5-3.5s-1.9-3.5-3.5-3.5H30v7H35.1L35.1,10.1z"/>
<path class="st0" d="M51.8,9.6c0-4.6,3-8.3,7.9-8.3s7.9,3.7,7.9,8.3c0,4.5-3.1,8.3-7.9,8.3S51.8,14.1,51.8,9.6z M65.8,9.6
	c0-3.9-2.5-6.7-6.2-6.7s-6.3,2.7-6.3,6.7s2.5,6.7,6.2,6.7S65.8,13.5,65.8,9.6z"/>
<path class="st0" d="M80.1,11.5v-10h1.6v9.6c0,3.5,2.5,5.2,5,5.2s5-1.8,5-5.2V1.5h1.6v10c0,3.1-2.5,6.4-6.6,6.4
	C82.5,17.9,80.1,14.6,80.1,11.5z"/>
<path class="st0" d="M106.8,1.5h6.4c2.5,0,5.3,1.4,5.3,5.2s-2.8,5.2-5.3,5.2h-4.7v5.7h-1.6V1.5H106.8z M113.2,10.4
	c1.7,0,3.7-1,3.7-3.7s-2-3.7-3.7-3.7h-4.7v7.3L113.2,10.4L113.2,10.4z"/>
<path class="st0" d="M132,1.5h9.7v1.6h-8.1v5.4h7.6V10h-7.6v6h8.1v1.5H132V1.5z"/>
<linearGradient id="SVGID_1_" gradientUnits="userSpaceOnUse" x1="118.55" y1="-101.7465" x2="118.55" y2="-143.6571" gradientTransform="matrix(1 0 0 -1 0 -76.3)">
	<stop  offset="0" style="stop-color:#82368C"/>
	<stop  offset="2.450915e-02" style="stop-color:#80358B"/>
	<stop  offset="0.3978" style="stop-color:#622C87"/>
	<stop  offset="0.6941" style="stop-color:#4F2784"/>
	<stop  offset="0.8748" style="stop-color:#482683"/>
</linearGradient>
<path class="st1" d="M136.1,25.4c-11,0-13.6,11.9-18.1,31.4c-6.3-4-1.6-28.3-15.6-28.3c-2,0-4.2,0.5-7,1.6
	c8.9,17,7.3,37.1,24.2,37.1c1.5,0,2.9-0.1,4.5-0.4l17.6-40.7C139.6,25.8,137.7,25.4,136.1,25.4z"/>
<linearGradient id="SVGID_2_" gradientUnits="userSpaceOnUse" x1="24.65" y1="-101.7166" x2="24.65" y2="-143.7166" gradientTransform="matrix(1 0 0 -1 0 -76.3)">
	<stop  offset="0" style="stop-color:#82368C"/>
	<stop  offset="2.450915e-02" style="stop-color:#80358B"/>
	<stop  offset="0.3978" style="stop-color:#622C87"/>
	<stop  offset="0.6941" style="stop-color:#4F2784"/>
	<stop  offset="0.8748" style="stop-color:#482683"/>
</linearGradient>
<path class="st2" d="M24.1,56.9c-6.3-4-1.7-28.3-15.6-28.3c-2,0-4.2,0.5-7,1.6c8.9,17,7.3,37.1,24.2,37.1c1.5,0,2.9-0.1,4.5-0.4
	l17.6-40.7c-2.1-0.5-4-0.9-5.6-0.9C31.2,25.4,28.6,37.3,24.1,56.9z"/>
<linearGradient id="SVGID_3_" gradientUnits="userSpaceOnUse" x1="71.65" y1="-101.7" x2="71.65" y2="-160.2" gradientTransform="matrix(1 0 0 -1 0 -76.3)">
	<stop  offset="0" style="stop-color:#82368C"/>
	<stop  offset="2.450915e-02" style="stop-color:#80358B"/>
	<stop  offset="0.3978" style="stop-color:#622C87"/>
	<stop  offset="0.6941" style="stop-color:#4F2784"/>
	<stop  offset="0.8748" style="stop-color:#482683"/>
</linearGradient>
<path class="st3" d="M70.5,57.6c-4.3-7.1-1.5-29-14.2-29c-2,0-4.2,0.5-7,1.6c7.9,15.1,7.3,32.7,18.9,36.4c-1.2,3.8-2.7,7.3-5.1,7.3
	c-1.9,0-3.8-0.6-6-0.6c-5,0-6.5,2.2-8.1,7.1c4.2,2.4,8.1,3.5,11.4,3.5c7.8,0,13.7-7.1,17.6-16.9c2.5-6.1,16.3-40.7,16.3-40.7
	c-1.6-0.5-3.1-0.9-4.2-0.9C78.3,25.4,75.9,37.4,70.5,57.6z"/>
</svg>
